<?xml version="1.0"?>
<svg version="1.1" xmlns="http://www.w3.org/2000/svg" width="400px" height="200px" style="border: dashed 2px #aaa"><path fill="#ffa200" d="M86.08,107.2l0,4.4l-8.08,0l0,7.6l7.16,0l0.92-3.28l3.6,0l0,8.08l-20.88,0l0-3.4l3-1.2l0-18.8l-3-1.2l0-3.4l9.2-0.2l11.2,0l0,7.72l-3.6,0l-1-2.92l-6.6,0l0,6.6l8.08,0z M115.7208,119.4l0-18.8l-3.8,0l-1,3.8l-3.68,0l0-8.6l23.2,0l0,8.6l-3.72,0l-1-3.8l-3.8,0l0,18.8l3.8,1.2l0,3.4l-13.8,0l0-3.4z M147.2016,124l0-3.4l3-1.2l0-18.8l-3-1.2l0-3.4l9.6-0.2l10.8,18.48l0-13.68l-2.92-1.2l0-3.4l11.4-0.2l0,3.6l-3,1.2l0,23.4l-6.68,0l-10.72-18.12l0,13.52l3.12,1.2l0,3.4l-11.6,0z M221.9624,120.6l0,3.4l-12.72,0l0-3.4l3-1.08l-0.96-2.92l-8.88,0l-1,2.88l3.12,1.12l0,3.4l-12.08,0l0-3.4l2.92-1.12l8.8-23.56l6.4-0.12l8.6,23.68z M209.9624,112.32l-3-9.48l-3.16,9.48l6.16,0z"/><path fill="#" d=""/></svg>
