<?xml version="1.0"?>
<svg version="1.1" xmlns="http://www.w3.org/2000/svg" width="400px" height="200px" style="border: dashed 2px #aaa"><path fill="#ffa200" d="M78.545,115.3l0,9.35l-17.17,0l0,16.15l15.215,0l1.955-6.97l7.65,0l0,17.17l-44.37,0l0-7.225l6.375-2.55l0-39.95l-6.375-2.55l0-7.225l19.55-0.425l23.8,0l0,16.405l-7.65,0l-2.125-6.205l-14.025,0l0,14.025l17.17,0z M141.5317,141.225l0-39.95l-8.075,0l-2.125,8.075l-7.82,0l0-18.275l49.3,0l0,18.275l-7.905,0l-2.125-8.075l-8.075,0l0,39.95l8.075,2.55l0,7.225l-29.325,0l0-7.225z M208.4284,151l0-7.225l6.375-2.55l0-39.95l-6.375-2.55l0-7.225l20.4-0.425l22.95,39.27l0-29.07l-6.205-2.55l0-7.225l24.225-0.425l0,7.65l-6.375,2.55l0,49.725l-14.195,0l-22.78-38.505l0,28.73l6.63,2.55l0,7.225l-24.65,0z M367.2951,143.775l0,7.225l-27.03,0l0-7.225l6.375-2.295l-2.04-6.205l-18.87,0l-2.125,6.12l6.63,2.38l0,7.225l-25.67,0l0-7.225l6.205-2.38l18.7-50.065l13.6-0.255l18.275,50.32z M341.7951,126.18l-6.375-20.145l-6.715,20.145l13.09,0z"/><path fill="#" d=""/></svg>
